<svg xmlns="http://www.w3.org/2000/svg" width="700" height="700" preserveAspectRatio="xMidYMid meet" version="1.0" viewBox="0 0 700 700">
  <g fill="#000" stroke="none" transform="translate(0,700) scale(0.1,-0.1)">
    <path d="M3295 6560 c-484 -36 -947 -180 -1355 -421 -54 -32 -88 -59 -86 -66 6 -13 214 -343 226 -356 4 -4 42 13 84 38 574 339 1261 447 1916 300 364 -81 710 -245 1025 -484 129 -98 369 -338 468 -468 331 -436 519 -944 544 -1474 l6 -129 224 0 224 0 -6 103 c-21 365 -75 641 -181 935 -157 432 -392 802 -718 1128 -563 563 -1286 873 -2091 898 -88 2 -214 1 -280 -4z"/>
    <path d="M2247 5234 c-170 -41 -343 -178 -421 -336 l-37 -73 -677 -5 -677 -5 -3 -222 -2 -223 678 0 678 0 33 -67 c87 -177 238 -299 431 -349 78 -20 223 -23 300 -5 86 20 228 93 292 151 62 55 149 177 168 234 l12 36 476 0 477 0 28 -62 c15 -36 23 -66 18 -72 -54 -70 -938 -1176 -951 -1189 -16 -18 -19 -18 -76 -1 -78 22 -228 22 -314 0 -121 -32 -207 -82 -301 -176 -70 -70 -94 -102 -127 -170 -214 -446 98 -950 588 -950 116 0 188 17 300 72 113 54 227 167 285 280 l40 78 1125 0 1125 0 -170 -170 -170 -170 158 -157 157 -158 435 435 c239 239 435 439 435 445 0 6 -196 206 -435 445 l-435 435 -157 -158 -158 -157 170 -170 170 -170 -1126 0 -1125 0 -28 59 c-18 37 -26 64 -20 72 4 8 223 283 487 612 360 451 482 597 495 593 79 -23 120 -29 202 -29 115 0 197 20 301 74 221 115 351 331 352 584 1 176 -64 336 -188 459 -129 129 -259 186 -440 194 -131 5 -216 -12 -320 -64 -129 -63 -244 -180 -303 -306 l-27 -58 -475 0 -475 0 -27 59 c-81 174 -250 311 -438 355 -80 19 -235 19 -313 0z m262 -453 c95 -49 138 -177 92 -276 -90 -195 -373 -152 -407 62 -15 96 54 202 152 233 42 13 116 4 163 -19z m2197 -6 c152 -89 125 -327 -45 -384 -112 -37 -242 30 -272 141 -51 191 146 343 317 243z m-1742 -2192 c127 -90 121 -282 -12 -360 -95 -56 -221 -28 -285 63 -36 51 -47 140 -25 194 22 51 62 95 111 120 61 31 153 24 211 -17z"/>
    <path d="M435 3388 c20 -352 81 -656 190 -955 60 -163 216 -468 317 -619 311 -466 709 -816 1202 -1059 207 -102 321 -147 509 -201 283 -81 536 -116 842 -117 442 0 823 78 1232 253 187 80 427 216 419 237 -6 14 -214 343 -226 356 -4 4 -42 -13 -84 -38 -295 -174 -610 -284 -976 -342 -173 -27 -567 -24 -747 5 -463 75 -850 241 -1218 521 -130 99 -370 339 -468 468 -332 437 -519 944 -544 1474 l-6 129 -224 0 -224 0 6 -112z"/>
  </g>
</svg>
